<mxfile host="65bd71144e">
    <diagram id="4w9VsvgNRBpLZ9Vrv5Sk" name="作業">
        <mxGraphModel dx="871" dy="459" grid="1" gridSize="10" guides="1" tooltips="1" connect="1" arrows="1" fold="1" page="1" pageScale="1" pageWidth="827" pageHeight="1169" math="0" shadow="0">
            <root>
                <mxCell id="gzULPtIPlF57TzexlcSB-0"/>
                <mxCell id="gzULPtIPlF57TzexlcSB-1" parent="gzULPtIPlF57TzexlcSB-0"/>
            </root>
        </mxGraphModel>
    </diagram>
</mxfile>